<svg width="202" height="388" viewBox="0 0 202 388" fill="none" xmlns="http://www.w3.org/2000/svg">
<path opacity="0.1" d="M364.128 186.633C358.129 186.382 352.9 190.978 351.353 197.364C342.055 197.98 331.438 198.098 319.796 197.212C313.321 196.708 307.168 195.948 301.417 195.029C301.462 193.909 301.492 192.777 301.506 191.645C301.574 186.138 301.241 180.72 300.572 175.415C303.536 173.174 307.237 170.825 311.715 168.829C319.468 165.338 326.698 164.153 332.273 163.855C334.925 170.174 341.153 173.908 347.174 172.389C353.963 170.68 357.937 162.977 356.021 155.182C354.121 147.385 347.094 142.439 340.305 144.148C334.124 145.712 330.276 152.247 331.084 159.299C326.181 162.046 318.898 165 309.925 165.114C305.502 165.178 301.631 164.528 298.496 163.713C296.602 155.467 293.841 147.554 290.278 140.08C294.183 136.589 298.794 132.894 304.186 129.338C311.991 124.174 319.507 120.504 326.1 117.882C330.316 123.007 337.11 124.777 342.415 121.753C348.508 118.287 350.304 109.781 346.447 102.774C342.59 95.7686 334.5 92.9089 328.407 96.3845C323.118 99.3981 321.055 106.214 323.149 112.539C317.46 116.904 310.475 121.501 302.109 125.574C296.423 128.359 290.986 130.463 286.066 132.053C282.143 125.2 277.544 118.797 272.348 112.941C274.467 105.513 277.989 96.8514 283.922 88.195C289.496 80.1019 295.635 74.2199 300.841 70.0959C306.48 73.7398 313.637 73.2729 317.765 68.6168C322.459 63.3431 321.511 54.7094 315.623 49.3303C309.766 43.9386 301.211 43.8434 296.533 49.1189C292.405 53.775 292.636 61.0326 296.8 66.3776C293.396 71.9282 288.267 78.8007 280.78 85.315C272.519 92.5026 264.262 96.7658 257.973 99.2838C250.922 93.665 243.223 88.8751 234.985 85.0599C236.223 81.6886 237.861 78.301 239.993 74.9779C241.701 72.3438 243.534 70.0308 245.378 68.013C251.651 70.6964 258.745 68.9084 261.988 63.4872C265.638 57.4335 263.122 49.1212 256.373 44.935C249.624 40.7472 241.208 42.2593 237.558 48.3243C234.364 53.6537 235.922 60.7249 240.927 65.1979C239.839 68.0164 238.526 70.9376 236.957 73.9124C235.175 77.3355 233.253 80.4861 231.222 83.3968C230.38 83.0443 229.554 82.7048 228.712 82.388C218.894 78.5161 208.405 76.0178 197.449 75.0806C195.706 70.1286 194.209 64.6461 193.181 58.6324C191.097 46.3615 191.643 35.7106 192.778 27.7204C199.242 26.5443 204.125 21.4628 204.2 15.3021C204.288 8.20239 197.958 2.36852 190.057 2.27165C182.14 2.17458 175.653 7.85129 175.566 14.951C175.49 21.2171 180.422 26.4903 187.015 27.7098C188.355 35.6152 189.162 46.667 186.802 59.4382C185.743 65.0597 184.228 70.1762 182.479 74.8032C171.953 75.2758 161.825 77.213 152.239 80.4171C150.941 78.257 149.772 75.9915 148.735 73.3238C146.692 68.0405 145.843 63.1027 145.526 58.997C151.743 55.8051 155.003 48.9892 152.907 42.8991C150.595 36.2015 142.669 32.9303 135.197 35.5959C127.742 38.2618 123.562 45.8512 125.89 52.5507C127.895 58.3298 134.065 61.5471 140.51 60.6092C142.345 64.5584 144.093 69.1066 145.435 74.2661C146.167 76.9983 146.693 79.668 147.092 82.2777C138.383 85.6596 130.203 90.1087 122.666 95.4611C118.776 92.5248 114.794 89.1234 110.868 85.147C101.834 75.9908 95.8501 66.6401 91.935 59.1621C96.4333 54.2283 97.303 47.0961 93.6444 42.1303C89.4519 36.4477 80.92 35.7494 74.5873 40.5683C68.2706 45.389 66.538 53.9007 70.7146 59.5816C74.4363 64.6016 81.5103 65.7231 87.4871 62.5915C93.2004 67.9279 100.616 76.3246 106.28 88.3346C108.878 93.8274 110.665 99.1595 111.913 104.127C110.702 105.231 109.475 106.37 108.295 107.533C102.396 113.402 97.0965 119.916 92.5401 126.978C89.916 126.176 87.1982 125.21 84.419 124.034C75.3828 120.207 68.4021 115.384 63.3451 111.195C65.5945 104.803 63.5566 97.8519 58.1987 94.7825C52.1275 91.2939 44.047 94.1403 40.1619 101.14C36.2609 108.136 38.0404 116.637 44.1435 120.124C49.4856 123.191 56.3723 121.358 60.603 116.116C66.7692 118.368 74.4514 121.954 82.3456 127.784C84.7028 129.526 86.852 131.314 88.8573 133.11C82.4112 144.575 77.8495 157.279 75.5925 170.797C70.144 171.203 64.2677 171.358 57.9656 171.082C48.967 170.692 40.8559 169.52 33.7703 168.038C33.6976 160.953 29.1097 154.967 22.7974 154.215C15.8476 153.387 9.47094 159.186 8.543 167.166C7.63102 175.146 12.5081 182.284 19.4421 183.109C25.6268 183.845 31.3332 179.328 33.1864 172.702C40.4628 172.941 48.6267 173.703 57.466 175.36C63.5978 176.507 69.2473 177.944 74.4798 179.528C74.1867 182.601 74.0369 185.71 73.9983 188.856C73.9067 196.327 74.5035 203.641 75.7573 210.741C69.6744 214.719 61.3183 219.213 50.6966 222.311C41.3885 225.027 33.0292 225.888 26.3709 226.014C24.054 219.686 18.1646 215.684 12.1329 216.789C5.26913 218.051 0.820043 225.481 2.22366 233.388C3.62725 241.295 10.3456 246.681 17.2094 245.419C23.1611 244.328 27.2699 238.625 27.3672 231.993C34.2101 229.826 42.2803 227.811 51.4428 226.548C61.9645 225.097 71.4002 224.986 79.3445 225.434C82.4009 235.248 86.7574 244.485 92.1609 252.957C89.5336 255.016 86.6193 257.043 83.3237 258.931C77.0376 262.549 71.0241 264.773 65.8026 266.195C62.3611 260.445 55.8181 257.686 50.1074 259.948C43.6105 262.535 40.653 270.696 43.5305 278.174C45.3407 282.867 49.0194 286.192 53.1236 287.363C55.5414 288.064 58.1122 288.014 60.5344 287.053C61.2403 286.767 61.9311 286.408 62.5589 285.98C67.3224 282.856 69.4144 276.284 67.4964 269.966C72.444 267.449 78.2213 264.967 84.8549 262.943C89.1331 261.646 93.1992 260.71 97.0229 260.024C100.446 264.639 104.224 268.977 108.278 272.988C108.656 273.37 109.051 273.753 109.429 274.11C106.575 280.374 102.299 287.977 95.8994 295.66C89.6294 303.18 83.1453 308.631 77.6866 312.471C72.3237 308.498 65.22 308.495 60.809 312.817C55.768 317.744 56.1405 326.431 61.6407 332.219C67.1092 337.994 75.6571 338.69 80.6821 333.761C85.0607 329.485 85.3554 322.366 81.7522 316.79C86.0668 311.215 91.6831 304.939 98.8306 298.763C106.526 292.134 114.089 287.249 120.678 283.661C129.252 290.017 138.751 295.194 148.906 298.94C148.459 302.839 147.721 307.04 146.533 311.45C143.957 321.056 140.191 328.735 136.786 334.38C130.242 332.965 123.725 335.929 121.435 341.728C118.848 348.314 122.695 356.075 130.034 359.067C137.356 362.058 145.406 359.137 148.025 352.54C150.282 346.812 147.681 340.198 142.122 336.614C143.786 329.781 146.392 321.709 150.457 313.054C152.456 308.834 154.562 304.99 156.712 301.49C164.555 303.745 172.726 305.167 181.181 305.635C182.471 312.376 183.496 319.912 183.938 328.139C184.602 340.378 183.815 351.198 182.556 360.123C176.125 361.307 171.257 366.389 171.182 372.535C171.095 379.635 177.425 385.467 185.357 385.564C193.258 385.661 199.729 379.986 199.816 372.886C199.891 366.764 195.182 361.575 188.813 360.211C187.856 351.058 187.413 340.249 188.168 328.191C188.683 320.057 189.685 312.557 190.917 305.778C199.764 305.544 208.352 304.27 216.568 302.07C217.255 303.304 217.926 304.587 218.58 305.906C222.927 314.604 225.222 322.737 226.435 329.238C220.696 332.53 217.711 339.028 219.699 344.88C221.947 351.594 229.856 354.924 237.343 352.325C244.813 349.716 249.057 342.16 246.792 335.445C244.79 329.487 238.333 326.198 231.678 327.344C228.695 321.988 225.25 313.912 224.147 303.614C224.003 302.338 223.907 301.088 223.858 299.859C233.011 296.763 241.652 292.493 249.618 287.235C254.658 291.508 259.96 296.597 265.217 302.631C273.309 311.907 279.167 321.027 283.382 328.768C278.948 333.691 278.111 340.771 281.738 345.71C285.947 351.388 294.462 352.083 300.795 347.264C307.112 342.448 308.845 333.941 304.668 328.252C301.041 323.347 294.175 322.153 288.297 325.043C282.088 318.49 275.213 310.209 268.617 300.054C264.356 293.49 260.842 287.127 257.962 281.157C261.17 278.59 264.237 275.855 267.178 272.954C271.961 268.201 276.351 263.029 280.25 257.486C287.296 259.578 295.416 262.615 304.013 267.131C312.308 271.469 319.21 276.212 324.759 280.62C322.559 286.892 324.487 293.733 329.717 296.84C335.739 300.441 343.865 297.733 347.877 290.812C351.889 283.878 350.238 275.353 344.216 271.751C338.954 268.61 332.054 270.284 327.745 275.397C321.518 272.9 313.965 269.141 306.165 263.418C298.065 257.48 291.965 251.142 287.562 245.685C290.649 239.968 293.277 233.949 295.397 227.676C298.779 227.836 302.367 228.186 306.063 228.798C315.606 230.378 323.537 233.222 329.632 236.033C329.023 242.75 332.682 248.952 338.585 250.57C345.331 252.422 352.477 247.637 354.552 239.879C356.61 232.119 352.827 224.335 346.065 222.483C340.146 220.851 333.894 224.362 331.057 230.518C324.567 229.897 316.237 228.343 307.167 224.648C303.737 223.237 300.563 221.676 297.678 220.048C299.202 214.23 300.297 208.237 300.899 202.088C306.795 201.677 313.055 201.447 319.647 201.515C331.267 201.623 341.823 202.601 351.081 203.965C352.119 210.454 356.958 215.444 362.941 215.707C369.93 215.992 375.865 209.719 376.171 201.691C376.493 193.663 371.101 186.919 364.128 186.633Z" fill="#FA5652"/>
</svg>
