<svg width="283" height="262" viewBox="0 0 283 262" fill="none" xmlns="http://www.w3.org/2000/svg">
<path d="M107.423 247.902C92.3293 253.25 77.0893 255.721 60.8336 252.633C42.7148 249.189 26.9992 233.683 18.1194 218.22C14.82 212.477 12.1934 206.059 12.5366 199.445C13.3352 184.167 27.7686 182.46 40.0203 184.931C46.9266 186.321 53.2681 189.484 59.5376 192.617C69.9463 197.822 82.1561 200.382 91.4879 207.597C94.6192 210.025 96.9708 212.942 100.609 214.708C106.27 217.458 112.73 218.756 118.544 221.259C123.507 223.406 129.055 226.939 129.063 232.344C129.064 237.888 123.28 241.421 118.197 243.628C114.6 245.201 111.019 246.635 107.423 247.902Z" fill="url(#paint0_linear)"/>
<path d="M51.8651 50.8355C76.591 14.397 127.719 -0.233812 169.162 13.4663C189.146 20.076 205.894 33.8393 221.342 48.1268C234.958 60.7193 248.168 74.3014 257.467 90.4898C263.816 101.54 268.36 114.785 271.569 127.151C276.367 145.667 272.01 169.524 248.075 167.776C242.46 167.366 237.601 165.347 232.35 163.58C228.101 162.148 223.938 163.007 219.527 162.307C208.425 160.549 197.73 156.462 187.616 151.675C167.005 141.908 148.172 128.64 126.975 120.082C109.604 113.078 91.0535 109.462 72.3236 109.429C64.4219 109.416 56.1136 109.969 49.0453 106.436C31.6239 97.7194 39.4581 74.2159 45.9645 60.9944C47.6882 57.4725 49.6601 54.0777 51.8651 50.8355V50.8355Z" fill="url(#paint1_linear)"/>
<path d="M245.73 56.3353C249.801 60.0221 265.795 70.0871 266.102 58.2758C266.175 55.3334 264.841 52.4763 263.024 50.3215C260.946 47.8481 258.59 46.5507 256.968 43.6691C254.982 40.1898 252.722 36.9198 250.216 33.9014C245.094 27.6189 239.114 21.8142 231.858 19.2278C226.769 17.416 218.153 17.8716 215.735 24.3941C212.213 33.8889 227.273 35.6287 231.865 39.089C236.224 42.3642 238.692 47.992 242.145 52.4646C243.236 53.8749 244.436 55.1707 245.73 56.3353V56.3353Z" fill="url(#paint2_linear)"/>
<path d="M170.456 44.7867C179.078 49.8631 185.546 57.4616 193.407 63.5812C206.496 73.7682 224.435 75.8522 239.444 82.9365C254.748 90.1647 266.304 101.398 271.529 117.588C278.279 138.486 278.92 163.338 273.186 184.822C266.87 208.471 252.039 224.18 230.354 234.656C208.681 245.126 184.673 250.012 160.728 251.02C158.417 251.119 156.11 251.173 153.794 251.187C101.775 251.489 32.534 233.179 14.8237 177.298C14.6613 176.787 14.5058 176.277 14.3497 175.759C12.5248 169.533 11.4518 163.111 11.1537 156.63C10.0397 133.654 14.0609 108.295 22.116 86.7562C27.5338 72.2556 39.2001 59.9947 51.4932 51.2586C68.7651 38.9854 89.8392 35.8532 110.814 34.3806C126.346 33.2909 143.814 32.8927 158.502 38.8337C162.63 40.5166 166.626 42.5065 170.456 44.7867Z" fill="url(#paint3_linear)"/>
<path d="M203.684 244.799C137.007 264.187 84.4482 246.923 65.0009 235.152L46.9426 221.304L53.1936 210.918L92.0882 207.456L156.681 203.994L208.772 214.38L218.747 209.309L220.525 227.685C222.896 241.913 221.118 238.356 203.684 244.799Z" fill="#FB4C47"/>
<path d="M79.7039 236.565H193.881C193.881 236.565 204.049 151.377 189.017 143.069C173.987 134.76 103.7 136.498 88.1217 143.593C72.5431 150.688 79.7039 236.565 79.7039 236.565Z" fill="#FB4C47"/>
<path d="M84.9758 125.126C84.7431 125.126 84.5078 125.04 84.3257 124.866C84.2245 124.772 74.3675 115.19 81.164 98.3199C83.5467 92.4045 85.7649 88.2491 87.7202 84.5849C91.2512 77.9731 93.8008 73.1948 94.972 62.6707C95.0301 62.1515 95.5057 61.7869 96.0191 61.8325C96.5402 61.8907 96.9145 62.3617 96.8564 62.8808C95.6448 73.7696 92.8852 78.9379 89.3946 85.4813C87.4596 89.1024 85.2692 93.2098 82.9219 99.0289C76.606 114.711 85.5373 123.399 85.6258 123.488C86.0078 123.848 86.0255 124.448 85.6638 124.828C85.4791 125.025 85.2287 125.126 84.9758 125.126Z" fill="#000C3E"/>
<path d="M148.387 24.8659C148.117 32.0753 142.061 37.702 134.86 37.431C127.659 37.1601 122.039 31.0978 122.309 23.8885C122.58 16.6791 128.635 11.0524 135.837 11.3234C143.038 11.5943 148.658 17.6566 148.387 24.8659Z" fill="#000C3E"/>
<path d="M84.0994 120.07C84.0994 120.07 87.3548 128.226 102.749 132.116C118.143 136.005 130.785 131.232 142.508 136.464C154.235 141.698 172.032 137.246 175.841 132.43C179.648 127.613 182.931 71.4856 174.111 61.4047C165.291 51.3212 116.122 39.9133 104.557 50.1462C92.9928 60.3791 77.7152 113.266 84.0994 120.07Z" fill="#000C3E"/>
<path d="M180.84 79.0603C179.95 102.818 159.993 121.357 136.259 120.468C112.528 119.577 90.5022 98.5308 91.3926 74.7731C92.2804 51.0154 112.425 33.7681 136.155 34.6595C159.889 35.5483 181.73 55.3025 180.84 79.0603Z" fill="#000C3E"/>
<path d="M155.508 115.054C155.508 115.054 158.297 148.579 155.508 152.304C152.718 156.029 135.042 153.236 130.393 152.304C125.741 151.374 123.88 115.054 126.672 115.054C129.462 115.054 154.971 107.579 155.508 115.054Z" fill="#FFCEB0"/>
<path d="M102.762 75.8334C102.762 75.8334 104.53 128.087 139.818 130.343C175.105 132.599 175.07 58.9762 162.299 51.9744C149.528 44.9702 96.2384 46.2844 102.762 75.8334Z" fill="#FFCEB0"/>
<path d="M144.698 87.0197C144.698 87.0197 151.436 103.102 149.703 104.168C147.968 105.234 142.894 105.044 141.526 103.862C140.157 102.679 141.941 85.2192 144.698 87.0197Z" fill="#EE9B68"/>
<path d="M130.547 47.9678C130.547 47.9678 117.895 54.0933 115.487 65.5923C113.079 77.0939 114.326 106.539 100.92 105.187C100.92 105.187 74.961 46.9143 130.547 47.9678" fill="#000C3E"/>
<path d="M137.218 48.2178C136.07 49.0408 150.265 49.0078 158.379 58.8558C166.496 68.7038 168.423 93.3174 169.678 93.7758C170.932 94.2316 175.943 63.2746 167.047 53.9736C158.149 44.6751 143.751 43.5356 137.218 48.2178Z" fill="#000C3E"/>
<path d="M127.16 125.578C127.16 125.578 140.89 133.393 155.146 126.09C155.146 126.09 156.253 134.862 155.146 136.885C154.035 138.908 131.458 140.354 127.014 130.382C127.014 130.382 125.878 125.145 127.16 125.578" fill="#EE9B68"/>
<path d="M166.329 95.8616C166.329 95.8616 169.104 82.7571 173.733 87.3658C178.359 91.9746 174.031 105.682 169.413 106.968C164.794 108.255 163.732 102.628 166.329 95.8616Z" fill="#FFCEB0"/>
<path d="M110.978 93.7855C110.978 93.7855 108.587 80.4886 102.362 84.6896C96.1376 88.8906 100.433 102.922 106.149 104.596C111.863 106.267 113.681 100.752 110.978 93.7855Z" fill="#FFCEB0"/>
<path d="M152.085 79.6672C152.085 79.6672 157.943 75.7295 162.266 80.0318C166.065 83.8151 158.037 81.2752 155.267 82.1134C152.497 82.949 148.741 83.1111 152.085 79.6672Z" fill="#41294A"/>
<path d="M136.637 80.5973C136.637 80.5973 131.022 76.3203 126.454 80.3592C122.437 83.912 130.602 81.8507 133.316 82.851C136.03 83.8487 139.773 84.2336 136.637 80.5973Z" fill="#41294A"/>
<path d="M130.537 84.9002C125.051 84.9002 120.592 89.2026 120.387 94.695C120.177 100.301 124.563 105.034 130.166 105.244L130.553 105.252C136.039 105.252 140.498 100.95 140.703 95.4573C140.804 92.7401 139.843 90.1471 137.997 88.1542C136.15 86.1613 133.639 85.0091 130.927 84.9078L130.537 84.9002ZM130.553 106.518C130.408 106.518 130.264 106.516 130.118 106.511C123.819 106.273 118.887 100.952 119.122 94.6469C119.36 88.3264 124.649 83.4163 130.973 83.6417C134.023 83.7557 136.848 85.0522 138.922 87.2932C140.999 89.5343 142.079 92.4489 141.968 95.5028C141.735 101.679 136.722 106.518 130.553 106.518Z" fill="#FFFCF6"/>
<path d="M119.759 95.3042C119.678 95.3042 119.597 95.289 119.516 95.2561L109.952 91.2905C109.631 91.1563 109.477 90.7841 109.611 90.4625C109.745 90.1384 110.114 89.9839 110.435 90.1206L120.001 94.0862C120.323 94.2204 120.477 94.5901 120.343 94.9142C120.242 95.1573 120.006 95.3042 119.759 95.3042Z" fill="#FFFCF6"/>
<path d="M141.964 52.8126C141.964 52.8126 140.532 73.1012 148.331 75.6714C156.129 78.2442 171.189 77.9859 172.115 74.8864C173.04 71.7894 157.247 46.8593 145.912 42.8608C126.039 35.8515 107.923 65.1878 110.192 72.9821C112.461 80.779 136.139 77.5959 139.781 76.5931C143.426 75.5904 141.236 58.4115 141.964 52.8126Z" fill="#000C3E"/>
<path d="M141.964 95.5054C141.638 95.5054 141.359 95.2521 141.334 94.9204C141.309 94.571 141.569 94.2671 141.916 94.2392L148.351 93.7505C148.705 93.7353 149.003 93.9835 149.031 94.3355C149.056 94.6824 148.796 94.9863 148.447 95.0141L142.014 95.5054C141.997 95.5054 141.979 95.5054 141.964 95.5054Z" fill="#FFFCF6"/>
<path d="M127.196 37.3577C127.05 37.3577 126.903 37.3247 126.764 37.2513C122.975 35.2964 120.714 32.5692 120.051 29.1506C118.586 21.6298 125.423 13.5493 125.717 13.21C126.058 12.8124 126.655 12.7694 127.052 13.1062C127.452 13.448 127.497 14.0482 127.156 14.4457C127.09 14.5217 120.62 22.1767 121.912 28.7935C122.461 31.6094 124.386 33.8885 127.631 35.5648C128.097 35.8054 128.281 36.3777 128.041 36.8436C127.872 37.1703 127.54 37.3577 127.196 37.3577Z" fill="#000C3E"/>
<path d="M142.249 39.6843C141.978 39.6843 141.707 39.5678 141.52 39.345C141.184 38.9424 141.237 38.3422 141.639 38.0054C141.717 37.9421 149.354 31.4545 149.164 24.7161C149.083 21.847 147.56 19.2818 144.634 17.0965C144.214 16.7825 144.128 16.1874 144.442 15.7671C144.753 15.3492 145.352 15.2606 145.767 15.5746C149.184 18.1271 150.965 21.1886 151.061 24.6705C151.271 32.3306 143.2 39.1753 142.856 39.464C142.679 39.6109 142.461 39.6843 142.249 39.6843Z" fill="#000C3E"/>
<path d="M172.573 130.513C172.267 130.513 171.966 130.364 171.784 130.09C171.491 129.655 171.61 129.067 172.045 128.774C172.422 128.518 181.34 122.39 179.944 110.881C179.4 106.388 178.171 101.377 176.868 96.0693C174.605 86.8316 172.26 77.2799 172.852 68.2701C172.885 67.7484 173.35 67.3281 173.861 67.3838C174.385 67.4192 174.779 67.87 174.744 68.3942C174.172 77.1127 176.479 86.5176 178.712 95.616C180.025 100.979 181.27 106.046 181.826 110.65C183.369 123.344 173.517 130.073 173.097 130.354C172.938 130.46 172.753 130.513 172.573 130.513Z" fill="#000C3E"/>
<path d="M180.755 83.4103C180.712 83.4103 180.669 83.4077 180.621 83.4001C180.103 83.3267 179.744 82.8481 179.817 82.329C181.889 67.6165 177.753 55.9428 167.529 47.6344C159.88 41.4177 151.543 39.521 151.46 39.5033C150.949 39.3919 150.625 38.8854 150.739 38.3714C150.85 37.8599 151.359 37.5383 151.869 37.6497C152.219 37.7256 186.874 45.8238 181.694 82.5924C181.628 83.0684 181.223 83.4103 180.755 83.4103Z" fill="#000C3E"/>
<path d="M146.445 120.659C144.518 120.659 143.026 120.046 142.929 120.006C142.449 119.803 142.221 119.249 142.424 118.765C142.623 118.284 143.177 118.056 143.66 118.254C143.691 118.266 146.564 119.423 149.073 118.18C149.544 117.942 150.11 118.134 150.346 118.606C150.578 119.074 150.389 119.644 149.918 119.877C148.737 120.467 147.523 120.659 146.445 120.659Z" fill="#EE9B68"/>
<path d="M107.384 101.253C107.293 101.253 107.2 101.241 107.108 101.213C106.605 101.058 106.324 100.529 106.476 100.028C108.386 93.7527 103.818 89.5846 103.772 89.5416C103.38 89.1921 103.347 88.592 103.696 88.202C104.043 87.8095 104.647 87.774 105.034 88.1235C105.262 88.3261 110.551 93.1576 108.292 100.58C108.168 100.99 107.791 101.253 107.384 101.253Z" fill="#EE9B68"/>
<path d="M169.44 101.439C169.417 101.439 169.395 101.439 169.374 101.436C168.851 101.398 168.456 100.945 168.494 100.423C168.924 94.3536 172.711 91.2794 172.87 91.1528C173.287 90.8261 173.872 90.8945 174.201 91.3047C174.527 91.7124 174.459 92.31 174.054 92.6367C174.021 92.6645 170.756 95.3563 170.386 100.555C170.351 101.056 169.933 101.439 169.44 101.439Z" fill="#EE9B68"/>
<path d="M106.15 146.493C106.15 146.493 138.81 175.508 157.017 167.946C175.221 160.385 180.601 142.621 171.449 139.902C162.298 137.182 91.8389 135.126 106.15 146.493Z" fill="#FFCEB0"/>
<path d="M148.332 117.256C148.226 117.256 148.117 117.238 148.011 117.2C145.039 116.121 143.569 114.807 143.513 113.176C143.425 110.515 147.487 108.649 147.95 108.444C148.425 108.233 148.987 108.449 149.199 108.93C149.409 109.408 149.194 109.971 148.714 110.183C147.361 110.781 145.375 112.128 145.41 113.113C145.433 113.827 146.647 114.686 148.653 115.412C149.146 115.592 149.402 116.137 149.225 116.628C149.083 117.015 148.719 117.256 148.332 117.256Z" fill="#EE9B68"/>
<path d="M133.318 97.6997C133.019 97.6997 132.721 97.5934 132.48 97.3832C128.246 93.6354 125.3 94.6078 125.176 94.6483C124.526 94.8813 123.802 94.5445 123.562 93.8988C123.322 93.2505 123.635 92.5339 124.278 92.2832C124.455 92.2123 128.686 90.6448 134.155 95.484C134.679 95.9474 134.729 96.7501 134.266 97.2718C134.016 97.5554 133.667 97.6997 133.318 97.6997Z" fill="#41294A"/>
<path d="M155.64 97.9365C155.291 97.9365 154.945 97.7922 154.692 97.5086C154.229 96.9844 154.279 96.1842 154.803 95.7208C160.279 90.8766 164.503 92.4491 164.68 92.52C165.33 92.7732 165.654 93.5076 165.399 94.1584C165.148 94.8067 164.425 95.1257 163.78 94.8852C163.628 94.832 160.689 93.895 156.478 97.62C156.237 97.8302 155.939 97.9365 155.64 97.9365Z" fill="#41294A"/>
<path d="M234.75 117.886L210.771 110.953L203.752 120.036L186.795 118.243L206.777 128.048L213.753 116.627L234.75 117.886Z" fill="#000C3E"/>
<path d="M213.923 100.419L198.782 100.655L196.316 107.17L186.158 109.14L199.49 111.283L201.517 103.417L213.923 100.419Z" fill="#000C3E"/>
<path d="M159.122 83.2873C153.636 83.2873 149.176 87.5896 148.971 93.0821C148.761 98.6911 153.147 103.421 158.75 103.632L159.137 103.639C164.623 103.639 169.083 99.3368 169.288 93.8443C169.497 88.2379 165.109 83.5051 159.509 83.2949L159.122 83.2873ZM159.137 104.905C158.99 104.905 158.846 104.903 158.699 104.898C152.404 104.66 147.471 99.3394 147.707 93.0365C147.944 86.7135 153.228 81.8085 159.559 82.0288C165.855 82.2668 170.785 87.5871 170.552 93.8899C170.322 100.066 165.306 104.905 159.137 104.905" fill="#FFFCF6"/>
<path d="M122.3 191.081C122.3 191.081 141.526 168.405 158.316 137.524C164.895 125.419 177.221 122.479 177.669 124.176C178.116 125.875 170.505 132.96 170.505 132.96C170.505 132.96 180.648 125.475 182.292 127.916C183.937 130.357 175.655 137.772 175.655 137.772C175.655 137.772 183.041 133.495 186.175 135.288C189.309 137.08 177.444 139.357 177.669 145.596C181.114 241.417 135.974 233.95 135.974 233.95L122.3 191.081Z" fill="#FFBD96"/>
<path d="M141.53 169.353C141.411 169.353 141.29 169.33 141.171 169.282C140.688 169.085 140.455 168.53 140.653 168.044C151.701 140.967 158.498 137.009 158.781 136.854C159.241 136.601 159.815 136.776 160.068 137.231C160.319 137.69 160.152 138.262 159.702 138.515C159.573 138.594 153.019 142.757 142.408 168.763C142.259 169.13 141.902 169.353 141.53 169.353Z" fill="#EE9B68"/>
<path d="M112.207 208.154L47.0244 213.358C47.0244 213.358 44.8365 182.115 54.2383 165.985C63.6401 149.854 89.8523 142.556 94.2357 141.652C98.6192 140.748 112.207 208.154 112.207 208.154Z" fill="#FB4C47"/>
<path d="M187.212 142.161C187.212 142.161 210.672 147.243 215.181 172.084C218.067 187.964 222.117 238.727 222.117 238.727L211.631 242.746L201.995 245.618L181.709 250.212L187.212 142.161Z" fill="#D9423D"/>
<path d="M119.752 187.043C119.752 187.043 147.621 232.738 137.93 234.004C128.24 235.27 78.9168 239.069 65.6375 234.004C52.3581 228.94 45.5919 222.675 47.2816 208.732C45.7912 187.043 52.9054 160.493 56.4415 166.504C74.4205 197.071 119.752 187.043 119.752 187.043Z" fill="#D9423D"/>
<path d="M116.968 188.31C98.5542 188.31 81.8829 170.03 81.1822 169.253C80.7143 168.733 80.7548 167.931 81.2733 167.465C81.7918 166.996 82.5911 167.037 83.0591 167.556C83.2235 167.738 99.6873 185.778 116.968 185.778C117.666 185.778 118.233 186.345 118.233 187.044C118.233 187.743 117.666 188.31 116.968 188.31Z" fill="#B43936"/>
<path d="M190.897 233.511H190.867C190.169 233.494 189.615 232.914 189.632 232.215C189.64 231.891 190.394 199.716 189.635 185.284C188.922 171.729 185.416 168.685 185.38 168.655C184.852 168.219 184.753 167.432 185.173 166.89C185.588 166.353 186.349 166.229 186.906 166.634C187.361 166.971 191.38 170.331 192.159 185.15C192.926 199.68 192.169 231.951 192.162 232.275C192.144 232.964 191.583 233.511 190.897 233.511Z" fill="#B43936"/>
<path d="M139.139 13.8601C138.807 13.8601 138.445 13.8987 138.054 13.976C137.099 14.1676 136.481 14.6315 136.109 15.4365C134.454 19.0196 137.945 27.5539 140.439 32.5958C141.98 27.0026 143.827 17.6532 141.217 14.7071C140.714 14.1407 140.03 13.8601 139.139 13.8601ZM140.729 36.8041C140.314 36.8041 139.926 36.5806 139.721 36.2108C138.839 34.6293 131.188 20.5843 134.012 14.4684C134.691 12.9979 135.933 12.0433 137.602 11.7105C140.445 11.1442 142.079 12.1945 142.946 13.1744C147.48 18.2936 142.42 34.2125 141.829 36.0108C141.684 36.4461 141.297 36.7553 140.84 36.799C140.803 36.8024 140.766 36.8041 140.729 36.8041Z" fill="#FFD310"/>
<path d="M154.715 19.5434C154.605 19.5434 154.495 19.5501 154.384 19.5669C150.479 20.0862 145.762 28.3667 143.268 33.6052C148.453 31.4221 156.676 27.2525 157.768 23.4609C158.014 22.6072 157.849 21.8526 157.252 21.0828C156.449 20.0493 155.617 19.5434 154.715 19.5434ZM141.051 36.8774C140.74 36.8774 140.436 36.7531 140.216 36.5211C139.898 36.1884 139.807 35.701 139.984 35.2775C140.713 33.5313 147.298 18.1804 154.078 17.2762C155.377 17.1031 157.298 17.3754 159.076 19.6644C160.121 21.0089 160.437 22.5433 159.989 24.0996C158.123 30.5717 143.147 36.1884 141.446 36.8085C141.317 36.8556 141.184 36.8774 141.051 36.8774Z" fill="#FFD310"/>
<path d="M119.361 32.7965C124.973 36.4043 137.801 39.2103 147.822 32.7965" stroke="#FFD310" stroke-width="1.63065"/>
<defs>
<linearGradient id="paint0_linear" x1="11.1968" y1="201.554" x2="26.8568" y2="255.929" gradientUnits="userSpaceOnUse">
<stop stop-color="#FFD8D8"/>
<stop offset="1" stop-color="#FFF8F8"/>
</linearGradient>
<linearGradient id="paint1_linear" x1="272.238" y1="83.3926" x2="107.901" y2="-20.3509" gradientUnits="userSpaceOnUse">
<stop stop-color="#FFF8F8"/>
<stop offset="1" stop-color="#FFCFCF"/>
</linearGradient>
<linearGradient id="paint2_linear" x1="266.518" y1="58.0687" x2="206.384" y2="32.3845" gradientUnits="userSpaceOnUse">
<stop stop-color="#FFD7D7"/>
<stop offset="1" stop-color="#FFF9F9"/>
</linearGradient>
<linearGradient id="paint3_linear" x1="252.945" y1="227.443" x2="11.203" y2="87.4516" gradientUnits="userSpaceOnUse">
<stop stop-color="#FFCFCF"/>
<stop offset="1" stop-color="#FFF8F8"/>
</linearGradient>
</defs>
</svg>
