<svg width="573" height="596" viewBox="0 0 573 596" fill="none" xmlns="http://www.w3.org/2000/svg">
<path d="M217.503 527.262C186.942 537.672 156.085 542.481 123.172 536.47C86.486 529.766 54.6661 499.585 36.6868 469.487C30.0065 458.307 24.6882 445.815 25.3832 432.943C27.0001 403.205 56.224 399.882 81.0305 404.692C95.0139 407.397 107.854 413.554 120.548 419.652C141.623 429.784 166.344 434.766 185.239 448.809C191.579 453.535 196.34 459.212 203.707 462.65C215.168 468.003 228.249 470.53 240.02 475.401C250.07 479.581 261.303 486.457 261.318 496.979C261.319 507.77 249.608 514.647 239.318 518.943C232.035 522.003 224.783 524.794 217.503 527.262Z" fill="url(#paint0_linear)"/>
<path d="M105.014 143.681C155.077 72.7553 258.598 44.2772 342.509 70.9438C382.972 83.8093 416.882 110.599 448.159 138.409C475.729 162.92 502.475 189.357 521.302 220.867C534.158 242.375 543.359 268.157 549.856 292.226C559.57 328.266 550.749 374.702 502.287 371.3C490.917 370.503 481.081 366.572 470.447 363.133C461.845 360.346 453.416 362.018 444.485 360.656C422.006 357.234 400.351 349.278 379.873 339.96C338.142 320.95 300.01 295.125 257.092 278.467C221.92 264.834 184.36 257.795 146.437 257.731C130.438 257.705 113.615 258.782 99.3041 251.905C64.0303 234.939 79.8926 189.19 93.0662 163.455C96.5563 156.6 100.549 149.992 105.014 143.681V143.681Z" fill="url(#paint1_linear)"/>
<path d="M497.541 154.387C505.783 161.563 538.165 181.154 538.789 158.164C538.936 152.436 536.234 146.875 532.556 142.681C528.349 137.867 523.579 135.341 520.293 129.732C516.273 122.96 511.696 116.595 506.623 110.72C496.253 98.4915 484.145 87.1928 469.454 82.1586C459.149 78.6319 441.703 79.5189 436.809 92.2145C429.677 110.696 460.169 114.082 469.467 120.817C478.292 127.192 483.29 138.147 490.281 146.852C492.49 149.598 494.92 152.12 497.541 154.387V154.387Z" fill="url(#paint2_linear)"/>
<path d="M345.129 131.908C362.586 141.789 375.682 156.579 391.599 168.491C418.099 188.319 454.421 192.375 484.81 206.165C515.797 220.234 539.195 242.099 549.774 273.612C563.441 314.289 564.74 362.662 553.129 404.48C540.341 450.512 510.312 481.088 466.405 501.48C422.524 521.859 373.913 531.369 325.431 533.331C320.752 533.524 316.081 533.628 311.392 533.657C206.067 534.245 65.8727 498.605 30.0139 389.834C29.6852 388.84 29.3702 387.847 29.0543 386.839C25.3593 374.72 23.1868 362.22 22.5831 349.606C20.3276 304.885 28.4695 255.523 44.7789 213.6C55.7485 185.375 79.3697 161.51 104.26 144.505C139.231 120.616 181.901 114.519 224.369 111.653C255.817 109.532 291.186 108.757 320.925 120.321C329.283 123.596 337.373 127.47 345.129 131.908Z" fill="url(#paint3_linear)"/>
<path d="M418.483 524.008C283.48 561.744 170.978 525.355 131.603 502.444L95.0396 475.489L107.696 455.273L186.447 448.535L317.231 441.796L422.702 462.012L532.391 426.971H540.314C523.439 481.958 453.171 514.574 418.483 524.008Z" fill="#FB4C47"/>
<path d="M407.299 255.745C407.299 255.745 514.1 260.412 539.829 368.217C560.218 507.29 464.108 458.105 441.129 451.25C418.155 444.395 336.234 266.387 407.299 255.745Z" fill="#D9423D"/>
<path d="M139.396 472.575H465.616C465.616 472.575 477.038 292.261 435.478 265.876C393.923 239.496 199.577 245.005 156.503 267.538C113.429 290.076 139.396 472.575 139.396 472.575Z" fill="#FB4C47"/>
<path d="M189.29 240.586C188.922 240.586 188.548 240.493 188.208 240.297C187.21 239.736 163.896 225.993 169.91 190.627C172.013 178.258 174.575 169.343 176.837 161.469C180.907 147.301 183.849 137.062 181.474 116.436C181.349 115.314 182.188 114.306 183.355 114.18C184.517 114.11 185.572 114.867 185.702 115.989C188.168 137.394 184.971 148.499 180.935 162.558C178.702 170.324 176.174 179.135 174.105 191.287C168.555 223.927 190.152 236.657 190.373 236.788C191.382 237.36 191.716 238.613 191.115 239.583C190.724 240.231 190.016 240.586 189.29 240.586Z" fill="#000C3E"/>
<path d="M272.502 22.7726C274.157 36.8479 263.626 49.5445 248.984 51.1357C234.343 52.7269 221.135 42.6022 219.48 28.5269C217.831 14.4516 228.357 1.75495 242.998 0.163783C257.64 -1.42194 270.847 8.69725 272.502 22.7726Z" fill="#000C3E"/>
<path d="M185.696 231.054C185.696 231.054 195.842 245.271 228.3 246.083C260.751 246.889 283.827 232.296 309.561 237.261C335.29 242.225 368.801 226.024 374.237 215.153C379.679 204.287 361.064 95.3578 338.952 79.8493C316.84 64.3409 213.641 63.7033 195.162 88.2901C176.683 112.877 169.91 220.777 185.696 231.054Z" fill="#000C3E"/>
<path d="M354.635 118.457C360.082 164.841 325.386 206.691 277.137 211.927C228.888 217.164 185.355 183.809 179.907 137.426C174.46 91.042 209.156 49.1921 257.405 43.9554C305.654 38.7187 349.187 72.0733 354.635 118.457Z" fill="#000C3E"/>
<path d="M314.401 195.769C314.401 195.769 330.267 260.031 325.761 268.085C321.254 276.134 284.671 275.9 274.989 275.458C265.302 275.011 250.462 205.054 256.102 204.232C261.742 203.414 311.04 181.416 314.401 195.769Z" fill="#FFCEB0"/>
<path d="M195.801 135.111C195.801 135.111 215.312 236.036 287.34 230.052C359.373 224.075 336.841 81.1582 308.891 71.317C280.94 61.4702 173.598 79.6597 195.801 135.111Z" fill="#FFCEB0"/>
<path d="M272.463 146.191C272.463 146.191 290.993 175.437 287.813 178.014C284.633 180.592 274.311 181.709 271.187 179.818C268.064 177.922 266.341 143.505 272.463 146.191Z" fill="#EE9B68"/>
<path d="M243.475 72.8588C243.475 72.8588 219.764 88.4654 218.404 111.499C217.043 134.528 228.544 191.325 201.03 192.638C201.03 192.638 130.776 87.1303 243.475 72.8588" fill="#000C3E"/>
<path d="M257.035 71.3857C254.966 73.3202 283.648 69.0862 303.062 85.8261C322.471 102.566 333.875 149.784 336.551 150.301C339.232 150.819 339.918 89.2482 319.098 73.8052C298.272 58.3621 268.814 60.3783 257.035 71.3857Z" fill="#000C3E"/>
<path d="M260.303 224.523C260.303 224.523 290.441 235.666 317.037 217.302C317.037 217.302 321.952 234.01 320.325 238.26C318.704 242.516 273.499 251.948 261.47 233.895C261.47 233.895 257.576 224.059 260.303 224.523Z" fill="#EE9B68"/>
<path d="M331.04 155.267C331.04 155.267 333.88 128.882 347.212 136.19C360.55 143.497 353.935 171.604 342.541 175.718C331.142 179.838 326.59 169.304 331.04 155.267Z" fill="#FFCEB0"/>
<path d="M217.884 167.551C217.884 167.551 208.996 142.436 197.693 152.419C186.39 162.402 199.354 188.384 211.416 189.953C223.484 191.522 225.474 180.281 217.884 167.551Z" fill="#FFCEB0"/>
<path d="M296.681 128.077C296.681 128.077 307.32 118.715 317.376 125.799C326.213 132.027 309.202 129.455 303.857 131.891C298.517 134.327 290.967 135.744 296.681 128.077Z" fill="#41294A"/>
<path d="M247.6 137.05C247.6 137.05 234.943 130.396 226.939 139.578C219.899 147.654 235.782 141.256 241.575 142.395C247.368 143.54 255.049 143.185 247.6 137.05Z" fill="#41294A"/>
<path d="M246.347 146.118C245.57 146.118 244.794 146.162 244.006 146.244C232.686 147.481 224.512 157.338 225.788 168.215C227.063 179.004 237.227 186.965 248.631 185.723C254.118 185.124 259.033 182.513 262.473 178.367C265.914 174.214 267.467 169.027 266.849 163.757C265.665 153.704 256.856 146.118 246.347 146.118ZM246.29 188.573C234.341 188.573 224.314 179.952 222.976 168.52C221.519 156.15 230.816 144.941 243.683 143.541C256.777 142.075 268.221 151.181 269.661 163.452C270.37 169.446 268.601 175.348 264.69 180.061C260.779 184.78 255.19 187.75 248.954 188.426C248.059 188.524 247.169 188.573 246.29 188.573Z" fill="#FFFCF6"/>
<path d="M303.826 134.577C303.044 134.577 302.267 134.62 301.473 134.702C295.986 135.301 291.072 137.911 287.637 142.058C284.191 146.211 282.643 151.398 283.255 156.668C284.531 167.463 294.694 175.413 306.099 174.176C311.586 173.577 316.5 170.966 319.941 166.82C323.382 162.667 324.935 157.48 324.317 152.21C323.132 142.162 314.329 134.577 303.826 134.577ZM303.746 177.026C291.803 177.026 281.782 168.405 280.444 156.973C279.735 150.979 281.504 145.077 285.415 140.364C289.326 135.645 294.921 132.675 301.15 131.999C314.165 130.544 325.689 139.628 327.128 151.905C327.837 157.899 326.068 163.801 322.157 168.52C318.246 173.233 312.657 176.203 306.422 176.879C305.526 176.977 304.636 177.026 303.746 177.026Z" fill="#FFFCF6"/>
<path d="M224.357 165.153C224.249 165.153 224.147 165.142 224.039 165.114L215.038 163.125C214.279 162.962 213.802 162.226 213.978 161.496C214.154 160.761 214.93 160.286 215.673 160.477L224.674 162.466C225.434 162.63 225.91 163.365 225.734 164.095C225.587 164.728 225.003 165.153 224.357 165.153Z" fill="#FFFCF6"/>
<path d="M323.904 147.06C323.365 147.06 322.849 146.76 322.611 146.264C322.288 145.583 322.606 144.771 323.314 144.455L334.611 139.496C335.297 139.18 336.159 139.48 336.488 140.172C336.811 140.853 336.499 141.665 335.785 141.975L324.493 146.94C324.301 147.021 324.102 147.06 323.904 147.06Z" fill="#FFFCF6"/>
<path d="M251.293 66.276C251.293 66.276 263.152 120.795 279.698 123.498C296.249 126.201 334.8 119.204 335.724 112.916C336.648 106.633 297.116 62.8703 272.986 58.4346C230.666 50.6586 205.85 118.496 212.811 132.963C219.777 147.437 252.223 129.176 259.28 126.163C266.343 123.144 251.531 77.3597 251.293 66.276Z" fill="#000C3E"/>
<path d="M268.078 163.785C267.432 163.785 266.848 163.36 266.7 162.734C266.525 161.998 266.995 161.268 267.755 161.099L281.965 157.927C282.759 157.731 283.496 158.216 283.666 158.941C283.842 159.677 283.371 160.407 282.606 160.576L268.401 163.747C268.288 163.775 268.185 163.785 268.078 163.785Z" fill="#FFFCF6"/>
<path d="M233.182 53.4438C232.955 53.4438 232.728 53.4112 232.501 53.3349C224.186 50.6266 218.75 45.9675 216.341 39.4721C211.058 25.2115 222.457 7.45252 222.95 6.70053C223.574 5.74147 224.877 5.44721 225.881 6.05752C226.873 6.65148 227.173 7.9157 226.555 8.86931C226.448 9.03824 215.751 25.7237 220.348 38.1098C222.298 43.3574 226.85 47.1827 233.862 49.4659C234.973 49.8256 235.574 50.9863 235.194 52.0543C234.899 52.9044 234.066 53.4438 233.182 53.4438Z" fill="#000C3E"/>
<path d="M264.313 53.5448C263.815 53.5448 263.31 53.3759 262.908 53.0326C262.029 52.286 261.944 50.9946 262.721 50.1499C262.857 50.0028 276.257 35.23 273.842 22.2881C272.81 16.7953 268.978 12.3106 262.454 8.94846C261.417 8.41444 261.026 7.17747 261.581 6.18571C262.137 5.17761 263.44 4.82886 264.455 5.34109C272.198 9.32991 276.756 14.79 278.025 21.5743C280.803 36.467 266.518 52.1934 265.906 52.8582C265.487 53.3105 264.903 53.5448 264.313 53.5448Z" fill="#000C3E"/>
<path d="M366.432 213.115C365.904 213.115 365.377 212.929 364.969 212.548C364.119 211.774 364.085 210.483 364.896 209.66C365.53 209.011 380.489 193.497 372.593 172.158C369.504 163.805 364.805 154.748 359.834 145.152C351.167 128.417 342.199 111.116 339.343 93.5697C339.155 92.4526 339.949 91.4064 341.111 91.2374C342.273 90.9922 343.361 91.8205 343.537 92.9376C346.292 109.863 355.112 126.875 363.643 143.326C368.671 153.037 373.421 162.203 376.601 170.785C385.392 194.549 368.682 211.758 367.968 212.482C367.554 212.902 366.993 213.115 366.432 213.115Z" fill="#000C3E"/>
<path d="M358.965 119.941C357.82 119.941 356.874 119.063 356.84 117.957C356.188 95.3211 348.921 77.791 335.237 65.8355C313.205 46.5943 281.711 48.3925 281.411 48.4252C280.107 48.5724 279.228 47.646 279.149 46.5235C279.064 45.4009 279.954 44.4255 281.127 44.3492C282.482 44.2566 314.729 42.4039 338.1 62.8166C352.673 75.5405 360.405 94.0515 361.091 117.837C361.125 118.965 360.201 119.908 359.028 119.941H358.965Z" fill="#000C3E"/>
<path d="M283.046 211.406C280.574 211.406 278.817 210.992 278.67 210.954C277.531 210.676 276.845 209.576 277.128 208.48C277.411 207.396 278.557 206.737 279.702 206.987C279.758 207.009 285.846 208.399 290.466 205.287C291.441 204.644 292.761 204.867 293.425 205.783C294.099 206.709 293.867 207.984 292.909 208.627C289.587 210.867 285.857 211.406 283.046 211.406Z" fill="#EE9B68"/>
<path d="M212.613 183.304C212.511 183.304 212.409 183.298 212.301 183.282C211.139 183.118 210.34 182.078 210.51 180.961C212.437 168.335 202.03 161.643 201.923 161.583C200.942 160.962 200.67 159.698 201.305 158.75C201.945 157.801 203.26 157.54 204.247 158.156C204.768 158.483 217.034 166.368 214.716 181.56C214.563 182.574 213.656 183.304 212.613 183.304Z" fill="#EE9B68"/>
<path d="M338.169 171.123C337.052 171.123 336.117 170.289 336.049 169.205C335.051 153.86 341.615 144.743 341.893 144.362C342.562 143.452 343.888 143.217 344.852 143.871C345.815 144.52 346.042 145.795 345.373 146.716C345.311 146.798 339.399 155.124 340.289 168.954C340.362 170.082 339.472 171.047 338.299 171.117C338.259 171.123 338.214 171.123 338.169 171.123Z" fill="#EE9B68"/>
<path d="M221.123 271.753C221.123 271.753 269.389 327.226 306.614 312.382C343.832 297.538 378.704 257.301 359.993 251.961C341.281 246.621 191.863 249.433 221.123 271.753Z" fill="#FFCEB0"/>
<path d="M257.458 166C257.991 169.379 255.57 172.528 252.056 173.04C248.542 173.547 245.265 171.226 244.732 167.847C244.205 164.469 246.62 161.319 250.134 160.807C253.649 160.3 256.925 162.622 257.458 166Z" fill="#41294A"/>
<path d="M317.813 154.842C318.346 158.221 315.926 161.37 312.411 161.882C308.897 162.389 305.621 160.068 305.088 156.689C304.561 153.311 306.975 150.161 310.49 149.649C314.004 149.142 317.281 151.464 317.813 154.842Z" fill="#41294A"/>
<path d="M267.961 203.973C267.626 203.973 267.297 203.896 266.986 203.744C265.948 203.226 265.535 202 266.073 200.992C266.379 200.425 273.708 186.966 285.516 185.696C292.221 184.977 298.763 188.273 305.037 195.466C305.791 196.338 305.672 197.624 304.777 198.349C303.881 199.09 302.543 198.959 301.784 198.098C296.473 192.012 291.19 189.183 285.997 189.761C276.458 190.775 269.916 202.741 269.848 202.866C269.474 203.569 268.732 203.973 267.961 203.973Z" fill="#EE9B68"/>
<g filter="url(#filter0_d)">
<ellipse cx="388.249" cy="413.079" rx="102.373" ry="98.415" fill="white"/>
</g>
<path d="M335.75 369.155C335.75 369.155 378.538 424.077 389.242 428.618C399.949 433.162 413.37 432.139 414.544 437.408C415.717 442.679 392.073 433.763 395.845 441.894C399.617 450.029 414.317 459.313 414.385 467.501C414.457 475.693 390.995 449.919 390.995 449.919C390.995 449.919 413.101 473.5 405.781 474.058C398.458 474.615 379.524 451.561 379.524 451.561C379.524 451.561 400.704 481.804 393.683 479.042C386.665 476.279 321.574 403.919 311.536 396.262C301.498 388.608 335.75 369.155 335.75 369.155Z" fill="#E27B5A"/>
<path d="M460.219 382.486C460.219 382.486 411.416 432.545 400.256 435.928C389.095 439.308 375.874 436.874 374.103 441.984C372.335 447.097 396.854 440.74 392.174 448.425C387.497 456.108 371.827 463.78 370.821 471.914C369.817 480.045 396.08 456.913 396.08 456.913C396.08 456.913 371.412 478.01 378.624 479.338C385.84 480.669 407.295 459.759 407.295 459.759C407.295 459.759 382.784 487.579 390.078 485.575C397.371 483.572 470.337 418.541 481.187 411.994C492.04 405.446 460.219 382.486 460.219 382.486Z" fill="#F8B38A"/>
<path d="M418.673 417.245C418.673 417.245 433.683 444.569 447.482 447.476C461.278 450.383 483.175 429.303 489.678 416.456C496.184 403.611 481.65 365.319 468.602 352.293C458.799 351.143 411.714 392.889 418.673 417.245Z" fill="#F65551"/>
<path d="M322.569 337.821C322.569 337.821 374.905 389.418 372.566 401.563C370.229 413.71 351.378 428.261 336.175 433.026C320.972 437.789 286.438 418.387 286.438 404.395C287.943 377.862 303.5 352.776 322.569 337.821Z" fill="#128E5A"/>
<path d="M147.489 397.579C147.489 397.579 262.893 458.207 284.466 457.959C306.038 457.706 327.747 446.138 333.903 454.102C340.055 462.073 293.3 464.499 306.09 475.362C318.874 486.223 350.91 490.986 357.533 504.665C364.148 518.34 304.317 492.375 304.317 492.375C304.317 492.375 360.138 515.66 348.296 521.97C336.45 528.287 286.37 503.553 286.37 503.553C286.37 503.553 345.93 538.691 331.956 539.216C317.982 539.741 151.3 466.267 128.38 460.806C105.455 455.346 147.489 397.579 147.489 397.579Z" fill="#FFC6A6"/>
<path d="M236.524 394.122C236.524 394.122 237.908 445.606 225.607 465.251C196.362 511.957 117.274 506.263 93.694 472.755C70.1135 439.248 121.677 270.082 156.504 267.537C191.33 264.992 236.524 345.349 236.524 394.122Z" fill="#D9423D"/>
<path d="M259.074 5.29202C258.421 5.29202 257.712 5.36493 256.944 5.51074C255.071 5.87209 253.857 6.74695 253.129 8.26528C249.881 15.0233 256.729 31.1194 261.622 40.6288C264.646 30.0797 268.27 12.4462 263.149 6.88959C262.163 5.82137 260.821 5.29202 259.074 5.29202ZM262.193 48.5659C261.378 48.5659 260.617 48.1443 260.215 47.447C258.483 44.4642 243.474 17.9743 249.014 6.43948C250.346 3.66592 252.783 1.86548 256.057 1.23787C261.636 0.169648 264.841 2.15076 266.542 3.99875C275.438 13.6539 265.51 43.6781 264.349 47.0698C264.066 47.8908 263.307 48.474 262.411 48.5564C262.338 48.5627 262.265 48.5659 262.193 48.5659Z" fill="#FFD310"/>
<path d="M289.631 16.0105C289.416 16.0105 289.199 16.0231 288.981 16.0548C281.322 17.0343 272.066 32.6518 267.173 42.532C277.345 38.4145 293.479 30.5503 295.622 23.3992C296.103 21.789 295.78 20.3657 294.61 18.914C293.033 16.9646 291.401 16.0105 289.631 16.0105ZM262.824 48.7036C262.214 48.7036 261.617 48.469 261.185 48.0316C260.562 47.404 260.384 46.4848 260.73 45.686C262.161 42.3926 275.08 13.4398 288.381 11.7344C290.93 11.4079 294.699 11.9214 298.187 16.2387C300.238 18.7745 300.858 21.6685 299.977 24.6037C296.318 36.8106 266.936 47.404 263.599 48.5737C263.345 48.6624 263.084 48.7036 262.824 48.7036Z" fill="#FFD310"/>
<path d="M220.268 41.0067C231.279 47.8112 256.446 53.1036 276.107 41.0067" stroke="#FFD310" stroke-width="4.87"/>
<defs>
<filter id="filter0_d" x="205.875" y="238.664" width="364.746" height="356.83" filterUnits="userSpaceOnUse" color-interpolation-filters="sRGB">
<feFlood flood-opacity="0" result="BackgroundImageFix"/>
<feColorMatrix in="SourceAlpha" type="matrix" values="0 0 0 0 0 0 0 0 0 0 0 0 0 0 0 0 0 0 127 0" result="hardAlpha"/>
<feOffset dy="4"/>
<feGaussianBlur stdDeviation="40"/>
<feColorMatrix type="matrix" values="0 0 0 0 0 0 0 0 0 0 0 0 0 0 0 0 0 0 0.22 0"/>
<feBlend mode="normal" in2="BackgroundImageFix" result="effect1_dropShadow"/>
<feBlend mode="normal" in="SourceGraphic" in2="effect1_dropShadow" result="shape"/>
</filter>
<linearGradient id="paint0_linear" x1="22.6704" y1="437.048" x2="52.1445" y2="543.504" gradientUnits="userSpaceOnUse">
<stop stop-color="#FFCCCC"/>
<stop offset="1" stop-color="#FFEEEE"/>
</linearGradient>
<linearGradient id="paint1_linear" x1="614.911" y1="154.013" x2="261.498" y2="69.1227" gradientUnits="userSpaceOnUse">
<stop stop-color="white"/>
<stop offset="1" stop-color="#FFCECE"/>
</linearGradient>
<linearGradient id="paint2_linear" x1="539.629" y1="157.761" x2="419.397" y2="104.342" gradientUnits="userSpaceOnUse">
<stop stop-color="#FFD1D1"/>
<stop offset="1" stop-color="#FFFBFC"/>
</linearGradient>
<linearGradient id="paint3_linear" x1="512.146" y1="487.44" x2="32.5656" y2="198.547" gradientUnits="userSpaceOnUse">
<stop stop-color="#FFCDCD"/>
<stop offset="1" stop-color="#FFF3F3"/>
</linearGradient>
</defs>
</svg>
